<?xml version="1.0" standalone="no"?>
<!DOCTYPE svg PUBLIC "-//W3C//DTD SVG 20010904//EN"
 "http://www.w3.org/TR/2001/REC-SVG-20010904/DTD/svg10.dtd">
<svg version="1.0" xmlns="http://www.w3.org/2000/svg"
 width="64.000000pt" height="64.000000pt" viewBox="0 0 64.000000 64.000000"
 preserveAspectRatio="xMidYMid meet">

<g transform="translate(0.000000,64.000000) scale(0.100000,-0.100000)"
fill="#ffffff" stroke="none">
<path d="M237 491 c-70 -73 -74 -80 -55 -99 19 -19 42 -14 68 13 13 14 27 25
32 25 4 0 8 -49 8 -110 0 -60 -4 -110 -8 -110 -5 0 -19 11 -32 25 -13 14 -31
25 -40 25 -17 0 -40 -19 -40 -33 0 -17 133 -147 150 -147 17 0 150 130 150
147 0 14 -23 33 -40 33 -9 0 -27 -11 -40 -25 -13 -14 -27 -25 -32 -25 -4 0 -8
50 -8 110 0 61 4 110 8 110 5 0 19 -11 32 -25 13 -14 31 -25 40 -25 17 0 40
19 40 33 0 17 -133 147 -150 147 -9 0 -47 -31 -83 -69z m150 -13 c35 -34 63
-66 63 -70 0 -18 -28 -6 -60 27 -19 19 -38 35 -42 35 -4 0 -8 -67 -8 -150 0
-82 4 -150 8 -150 4 0 23 16 42 35 32 33 60 45 60 27 0 -4 -29 -37 -65 -72
l-65 -64 -65 64 c-36 35 -65 68 -65 72 0 18 28 6 60 -27 19 -19 38 -35 42 -35
4 0 8 68 8 150 0 83 -4 150 -8 150 -4 0 -23 -16 -42 -35 -31 -32 -60 -45 -60
-28 0 8 122 133 129 133 3 0 34 -28 68 -62z"/>
</g>
</svg>
