<?xml version="1.0" standalone="no"?>
<!DOCTYPE svg PUBLIC "-//W3C//DTD SVG 20010904//EN"
 "http://www.w3.org/TR/2001/REC-SVG-20010904/DTD/svg10.dtd">
<svg version="1.0" xmlns="http://www.w3.org/2000/svg"
 width="64.000000pt" height="64.000000pt" viewBox="0 0 64.000000 64.000000"
 preserveAspectRatio="xMidYMid meet">

<g transform="translate(0.000000,64.000000) scale(0.100000,-0.100000)"
fill="#ffffff" stroke="none">
<path d="M149 403 c-38 -36 -69 -74 -69 -83 0 -17 130 -150 147 -150 14 0 33
23 33 40 0 9 -11 27 -25 40 -14 13 -25 27 -25 32 0 4 50 8 110 8 61 0 110 -4
110 -8 0 -5 -11 -19 -25 -32 -14 -13 -25 -31 -25 -40 0 -17 19 -40 33 -40 17
0 147 133 147 150 0 17 -130 150 -147 150 -14 0 -33 -23 -33 -40 0 -9 11 -27
25 -40 14 -13 25 -27 25 -32 0 -4 -49 -8 -110 -8 -60 0 -110 4 -110 8 0 5 11
19 25 32 27 26 32 49 13 68 -19 19 -26 15 -99 -55z m91 34 c0 -7 -16 -28 -35
-47 -19 -19 -35 -38 -35 -42 0 -4 68 -8 150 -8 83 0 150 4 150 8 0 4 -16 23
-35 42 -33 32 -45 60 -27 60 4 0 37 -29 72 -65 l64 -65 -64 -65 c-35 -36 -68
-65 -72 -65 -18 0 -6 28 27 60 19 19 35 38 35 42 0 4 -67 8 -150 8 -82 0 -150
-4 -150 -8 0 -4 16 -23 35 -42 33 -32 45 -60 27 -60 -4 0 -37 29 -72 65 l-64
65 64 65 c65 66 80 75 80 52z"/>
</g>
</svg>
