<?xml version="1.0" standalone="no"?>
<!DOCTYPE svg PUBLIC "-//W3C//DTD SVG 20010904//EN"
 "http://www.w3.org/TR/2001/REC-SVG-20010904/DTD/svg10.dtd">
<svg version="1.0" xmlns="http://www.w3.org/2000/svg"
 width="100.000000pt" height="100.000000pt" viewBox="0 0 100.000000 100.000000"
 preserveAspectRatio="xMidYMid meet">

<g transform="translate(0.000000,100.000000) scale(0.100000,-0.100000)"
fill="#000000" stroke="none">
<path d="M525 750 l-49 -50 59 -60 59 -60 -237 0 -237 0 0 -80 0 -80 237 0
237 0 -59 -60 -60 -60 53 -53 52 -52 152 153 153 152 -150 150 c-82 82 -152
150 -155 150 -3 0 -28 -23 -55 -50z m195 -115 l135 -135 -138 -137 -137 -138
-37 38 -38 37 63 63 c34 34 62 66 62 70 0 4 -110 7 -245 7 l-245 0 0 60 0 60
245 0 c135 0 245 3 245 7 0 4 -28 36 -62 70 l-62 63 34 35 c19 19 36 35 40 35
3 0 66 -61 140 -135z"/>
<path d="M630 665 c29 -30 56 -52 59 -50 6 7 -90 105 -103 105 -6 0 14 -25 44
-55z"/>
<path d="M740 562 c0 -12 19 -26 26 -19 2 2 -2 10 -11 17 -9 8 -15 8 -15 2z"/>
<path d="M790 510 c0 -5 5 -10 11 -10 5 0 7 5 4 10 -3 6 -8 10 -11 10 -2 0 -4
-4 -4 -10z"/>
<path d="M665 370 c-49 -50 -85 -90 -80 -90 13 0 180 168 174 174 -3 3 -45
-35 -94 -84z"/>
</g>
</svg>
