<?xml version="1.0" standalone="no"?>
<!DOCTYPE svg PUBLIC "-//W3C//DTD SVG 20010904//EN"
 "http://www.w3.org/TR/2001/REC-SVG-20010904/DTD/svg10.dtd">
<svg version="1.0" xmlns="http://www.w3.org/2000/svg"
 width="100.000000pt" height="100.000000pt" viewBox="0 0 100.000000 100.000000"
 preserveAspectRatio="xMidYMid meet">

<g transform="translate(0.000000,100.000000) scale(0.100000,-0.100000)"
fill="#000000" stroke="none">
<path d="M235 838 c-3 -7 -4 -164 -3 -348 l3 -335 95 0 95 0 0 345 0 345 -93
3 c-68 2 -94 -1 -97 -10z m175 -338 l0 -330 -80 0 -80 0 0 330 0 330 80 0 80
0 0 -330z"/>
<path d="M372 730 c0 -19 2 -27 5 -17 2 9 2 25 0 35 -3 9 -5 1 -5 -18z"/>
<path d="M374 440 c0 -135 2 -190 3 -122 2 67 2 177 0 245 -1 67 -3 12 -3
-123z"/>
<path d="M575 838 c-3 -7 -4 -164 -3 -348 l3 -335 95 0 95 0 0 345 0 345 -93
3 c-68 2 -94 -1 -97 -10z m175 -338 l0 -330 -80 0 -80 0 0 330 0 330 80 0 80
0 0 -330z"/>
<path d="M714 585 c0 -121 2 -169 3 -107 2 62 2 161 0 220 -1 59 -3 8 -3 -113z"/>
<path d="M712 270 c0 -19 2 -27 5 -17 2 9 2 25 0 35 -3 9 -5 1 -5 -18z"/>
</g>
</svg>
