<?xml version="1.0" standalone="no"?>
<!DOCTYPE svg PUBLIC "-//W3C//DTD SVG 20010904//EN"
 "http://www.w3.org/TR/2001/REC-SVG-20010904/DTD/svg10.dtd">
<svg version="1.0" xmlns="http://www.w3.org/2000/svg"
 width="100.000000pt" height="100.000000pt" viewBox="0 0 100.000000 100.000000"
 preserveAspectRatio="xMidYMid meet">

<g transform="translate(0.000000,100.000000) scale(0.100000,-0.100000)"
fill="#000000" stroke="none">
<path d="M265 650 l-150 -150 153 -152 152 -153 52 52 53 53 -60 60 -59 60
237 0 237 0 0 80 0 80 -237 0 -237 0 59 60 59 60 -49 50 c-27 27 -52 50 -55
50 -3 0 -73 -68 -155 -150z m195 85 l34 -35 -62 -63 c-34 -34 -62 -66 -62 -70
0 -4 110 -7 245 -7 l245 0 0 -60 0 -60 -245 0 c-135 0 -245 -3 -245 -7 0 -4
28 -36 62 -70 l63 -63 -38 -37 -37 -38 -137 138 -138 137 135 135 c74 74 137
135 140 135 4 0 21 -16 40 -35z"/>
<path d="M355 670 c-27 -27 -47 -52 -44 -55 3 -2 30 20 59 50 30 30 50 55 44
55 -5 0 -32 -22 -59 -50z"/>
<path d="M240 555 c-8 -9 -8 -15 -2 -15 12 0 26 19 19 26 -2 2 -10 -2 -17 -11z"/>
<path d="M195 510 c-3 -5 -1 -10 4 -10 6 0 11 5 11 10 0 6 -2 10 -4 10 -3 0
-8 -4 -11 -10z"/>
<path d="M240 455 c0 -13 168 -180 174 -174 3 3 -35 45 -84 94 -50 49 -90 85
-90 80z"/>
</g>
</svg>
