<?xml version="1.0" standalone="no"?>
<!DOCTYPE svg PUBLIC "-//W3C//DTD SVG 20010904//EN"
 "http://www.w3.org/TR/2001/REC-SVG-20010904/DTD/svg10.dtd">
<svg version="1.0" xmlns="http://www.w3.org/2000/svg"
 width="50.000000pt" height="50.000000pt" viewBox="0 0 50.000000 50.000000"
 preserveAspectRatio="xMidYMid meet">

<g transform="translate(0.000000,50.000000) scale(0.100000,-0.100000)"
fill="#ffffff" stroke="none">
<path d="M224 457 c-3 -8 -4 -39 -2 -68 3 -50 5 -54 28 -54 24 0 25 2 25 65 0
60 -2 65 -23 68 -12 2 -24 -3 -28 -11z"/>
<path d="M90 387 c0 -29 61 -90 86 -85 31 6 28 38 -7 74 -39 41 -79 46 -79 11z"/>
<path d="M331 376 c-35 -36 -38 -68 -7 -74 25 -5 86 56 86 85 0 35 -40 30 -79
-11z m59 6 c0 -14 -59 -66 -67 -59 -3 4 6 21 22 37 28 30 45 38 45 22z"/>
<path d="M34 265 c-14 -35 3 -46 68 -43 60 3 63 4 63 28 0 24 -3 25 -63 28
-49 2 -64 0 -68 -13z"/>
<path d="M334 265 c-14 -35 3 -46 68 -43 60 3 63 4 63 28 0 24 -3 25 -63 28
-49 2 -64 0 -68 -13z m116 -15 c0 -5 -22 -10 -50 -10 -27 0 -50 5 -50 10 0 6
23 10 50 10 28 0 50 -4 50 -10z"/>
<path d="M122 167 c-39 -40 -43 -77 -9 -77 30 0 90 61 85 86 -6 32 -41 28 -76
-9z"/>
<path d="M307 193 c-15 -14 -5 -41 26 -71 40 -39 77 -43 77 -9 0 41 -80 104
-103 80z m58 -43 c16 -16 25 -33 22 -37 -8 -7 -67 45 -67 59 0 16 17 8 45 -22z"/>
<path d="M224 157 c-3 -8 -4 -39 -2 -68 3 -50 5 -54 28 -54 24 0 25 2 25 65 0
60 -2 65 -23 68 -12 2 -24 -3 -28 -11z"/>
</g>
</svg>
