<?xml version="1.0" standalone="no"?>
<!DOCTYPE svg PUBLIC "-//W3C//DTD SVG 20010904//EN"
 "http://www.w3.org/TR/2001/REC-SVG-20010904/DTD/svg10.dtd">
<svg version="1.0" xmlns="http://www.w3.org/2000/svg"
 width="60.000000pt" height="60.000000pt" viewBox="0 0 60.000000 60.000000"
 preserveAspectRatio="xMidYMid meet">

<g transform="translate(0.000000,60.000000) scale(0.100000,-0.100000)"
fill="#ffffff" stroke="none">
<path d="M112 484 c-15 -10 -22 -25 -22 -49 0 -41 8 -47 68 -49 145 -5 180
-184 50 -252 -52 -27 -108 -13 -158 41 -34 37 -35 116 -2 163 28 38 13 44 -17
6 -46 -59 -36 -150 24 -203 65 -57 157 -51 214 14 26 30 36 35 76 35 l45 0 0
65 0 65 -30 0 c-16 0 -30 -4 -30 -10 0 -5 9 -10 20 -10 17 0 20 -7 20 -45 0
-45 0 -45 -34 -45 -29 0 -33 3 -29 20 15 58 -35 144 -99 171 -18 7 -38 20 -45
29 -10 13 -12 13 -18 -2 -10 -26 -35 -22 -35 6 0 48 65 63 85 19 12 -28 25
-30 25 -4 0 23 -36 51 -65 51 -11 0 -31 -7 -43 -16z"/>
<path d="M84 326 c-26 -26 -34 -42 -34 -71 0 -29 8 -45 34 -71 47 -47 95 -47
142 0 45 45 47 92 4 138 -16 18 -30 27 -30 20 0 -7 9 -22 20 -34 46 -50 4
-138 -65 -138 -45 0 -85 41 -85 87 0 39 37 83 70 83 11 0 20 5 20 10 0 22 -44
8 -76 -24z"/>
<path d="M480 335 c0 -10 -10 -15 -30 -15 l-30 0 0 -65 0 -65 30 0 c20 0 30
-5 30 -15 0 -25 16 -17 70 33 l52 47 -50 48 c-53 49 -72 57 -72 32z m58 -112
c-18 -19 -34 -29 -36 -23 -2 5 -17 10 -33 10 -28 0 -29 2 -29 45 0 43 1 45 30
45 17 0 30 5 30 12 0 7 16 -3 35 -22 l35 -34 -32 -33z"/>
<path d="M110 292 c0 -14 39 -46 47 -39 3 4 -2 16 -12 27 -19 21 -35 26 -35
12z"/>
</g>
</svg>
