<?xml version="1.0" standalone="no"?>
<!DOCTYPE svg PUBLIC "-//W3C//DTD SVG 20010904//EN"
 "http://www.w3.org/TR/2001/REC-SVG-20010904/DTD/svg10.dtd">
<svg version="1.0" xmlns="http://www.w3.org/2000/svg"
 width="100.000000pt" height="100.000000pt" viewBox="0 0 100.000000 100.000000"
 preserveAspectRatio="xMidYMid meet">

<g transform="translate(0.000000,100.000000) scale(0.100000,-0.100000)"
fill="#000000" stroke="none">
<path d="M202 848 c-9 -9 -12 -100 -12 -348 0 -342 2 -360 37 -360 24 0 613
334 618 351 3 9 3 22 0 30 -6 15 -596 339 -618 339 -7 0 -18 -5 -25 -12z m341
-175 c184 -101 287 -162 285 -170 -4 -19 -594 -347 -607 -338 -12 7 -16 657
-4 669 10 10 13 8 326 -161z"/>
<path d="M240 499 l0 -301 83 45 c250 137 450 253 450 261 -1 11 -304 179
-310 172 -2 -2 62 -39 143 -83 80 -44 146 -84 146 -89 1 -8 -478 -283 -494
-284 -5 0 -8 126 -8 280 0 154 2 280 5 280 3 0 24 -9 45 -20 22 -11 40 -18 40
-16 0 4 -89 56 -96 56 -2 0 -4 -135 -4 -301z"/>
<path d="M370 720 c8 -5 20 -10 25 -10 6 0 3 5 -5 10 -8 5 -19 10 -25 10 -5 0
-3 -5 5 -10z"/>
<path d="M417 699 c7 -7 15 -10 18 -7 3 3 -2 9 -12 12 -14 6 -15 5 -6 -5z"/>
</g>
</svg>
